<?xml version="1.0" encoding="UTF-8"?>
<svg version="1.1" xmlns="http://www.w3.org/2000/svg" width="600" height="587">
<path d="M0 0 C198 0 396 0 600 0 C600 193.71 600 387.42 600 587 C402 587 204 587 0 587 C0 393.29 0 199.58 0 0 Z " fill="#02C7AD" transform="translate(0,0)"/>
<path d="M0 0 C198 0 396 0 600 0 C600 193.71 600 387.42 600 587 C402 587 204 587 0 587 C0 393.29 0 199.58 0 0 Z M217 46 C216.27876953 46.23267578 215.55753906 46.46535156 214.81445312 46.70507812 C189.07544545 55.18351231 164.68224157 68.88596055 143 85 C142.38382812 85.45632812 141.76765625 85.91265625 141.1328125 86.3828125 C131.46823965 93.59958961 122.66832455 101.62559999 114 110 C113.21616943 110.75095947 113.21616943 110.75095947 112.41650391 111.51708984 C85.02035646 137.83641525 64.97928659 172.52223003 52 208 C51.54238281 209.22074219 51.08476563 210.44148437 50.61328125 211.69921875 C47.89946755 219.3441261 45.83866812 227.1338193 43.875 235 C43.63313965 235.94125732 43.3912793 236.88251465 43.14208984 237.85229492 C38.5447624 256.95530906 37.44613649 276.23686451 37.5625 295.8125 C37.56554138 296.90496033 37.56858276 297.99742065 37.57171631 299.12298584 C37.63874165 315.4309959 38.34845634 331.04985441 42 347 C42.30550781 348.45140381 42.30550781 348.45140381 42.6171875 349.93212891 C50.77908258 388.54368656 68.15003282 425.33934397 93 456 C93.72574219 456.9178125 94.45148438 457.835625 95.19921875 458.78125 C134.81004073 508.27699883 191.33172189 541.95833026 253.5 554.1875 C254.28149414 554.34259033 255.06298828 554.49768066 255.86816406 554.6574707 C271.93974591 557.64121743 287.87860823 558.37489644 304.1875 558.3125 C305.1785675 558.31067719 306.16963501 558.30885437 307.19073486 558.30697632 C321.65660668 558.26219621 335.77310283 557.83496082 350 555 C350.93279785 554.82307617 351.8655957 554.64615234 352.82666016 554.46386719 C395.26545743 546.30987229 434.9836841 528.78905332 469 502 C469.91007812 501.28328125 470.82015625 500.5665625 471.7578125 499.828125 C486.50734996 487.97806926 500.33401894 474.91782248 512 460 C512.80179688 458.99195313 513.60359375 457.98390625 514.4296875 456.9453125 C526.0305786 442.24721736 535.36911646 426.60800986 544 410 C544.35191406 409.32501465 544.70382812 408.6500293 545.06640625 407.95458984 C560.6097825 377.68890481 570.12569526 341.71094706 570.16796875 307.59375 C570.17129715 306.62957153 570.17462555 305.66539307 570.17805481 304.67199707 C570.1830857 302.64168774 570.18546433 300.61137025 570.18530273 298.58105469 C570.18747457 295.53566189 570.20563153 292.49064077 570.22460938 289.4453125 C570.27246949 273.30923102 569.13970429 257.73918679 565.6875 241.9375 C565.46731201 240.91712646 565.24712402 239.89675293 565.02026367 238.84545898 C559.86444856 215.46495027 551.38515575 193.07807345 540 172 C539.65646484 171.35305176 539.31292969 170.70610352 538.95898438 170.03955078 C527.75425346 149.01787783 513.52101698 130.12032836 497 113 C496.43345703 112.41154297 495.86691406 111.82308594 495.28320312 111.21679688 C487.91615779 103.6055401 480.413613 96.4634378 472 90 C471.42588379 89.54947266 470.85176758 89.09894531 470.26025391 88.63476562 C398.62536158 32.46671082 302.99926889 17.94396475 217 46 Z " fill="#FDFEFE" transform="translate(0,0)"/>
<path d="M0 0 C6.02312458 4.43115394 12.8355791 9.92905065 14.5078125 17.45703125 C15.65071747 17.45036942 16.79362244 17.44370758 17.97116089 17.43684387 C28.76966573 17.37588977 39.56813542 17.33099007 50.36677361 17.30159473 C55.91776606 17.285974 61.46861904 17.26480148 67.01953125 17.23071289 C72.38173916 17.19799119 77.74381334 17.18015124 83.10611343 17.17239952 C85.14652739 17.16687896 87.18693446 17.15609889 89.22729111 17.13984108 C92.096835 17.11789646 94.96583422 17.11507141 97.83544922 17.11645508 C98.66911514 17.10566925 99.50278107 17.09488342 100.36170959 17.08377075 C108.95128142 17.12825773 116.58908008 19.14118585 123.4453125 24.45703125 C124.78916016 25.47796875 124.78916016 25.47796875 126.16015625 26.51953125 C129.94988288 29.64715922 129.94988288 29.64715922 131.5078125 31.45703125 C131.5078125 32.11703125 131.5078125 32.77703125 131.5078125 33.45703125 C132.4978125 33.78703125 133.4878125 34.11703125 134.5078125 34.45703125 C136.04501343 36.02165222 136.04501343 36.02165222 137.68505859 38.01635742 C141.44597119 42.44635961 145.49591651 46.4721721 149.671875 50.5078125 C151.22210665 52.02592469 152.7715625 53.54482942 154.3203125 55.06445312 C156.72683797 57.42166053 159.13738196 59.7739404 161.56152344 62.11303711 C163.92503804 64.39720857 166.26838925 66.70058509 168.609375 69.0078125 C169.32719147 69.6915242 170.04500793 70.3752359 170.78457642 71.07966614 C178.26271676 78.51719279 182.5975275 87.51898611 182.65498352 98.15357971 C182.66571648 99.52621223 182.66571648 99.52621223 182.67666626 100.92657471 C182.67935516 101.91832703 182.68204407 102.91007935 182.68481445 103.93188477 C182.69138565 104.98623215 182.69795685 106.04057953 182.70472717 107.12687683 C182.72442248 110.61323117 182.73611582 114.09954245 182.74609375 117.5859375 C182.75016928 118.77995619 182.7542448 119.97397488 182.75844383 121.20417595 C182.77929073 127.52682191 182.7935972 133.84944627 182.80297852 140.17211914 C182.81402654 146.68285368 182.84841239 153.19324492 182.88815022 159.70385838 C182.91437421 164.72697051 182.92267562 169.75000164 182.92625999 174.77317619 C182.9311127 177.17198944 182.9426888 179.57079939 182.96129799 181.96954536 C183.15426529 208.49671991 183.15426529 208.49671991 176.5703125 218.359375 C175.8896875 219.03097656 175.2090625 219.70257813 174.5078125 220.39453125 C171.43530645 223.46441655 168.44572357 226.58945691 165.52339172 229.80265808 C158.36723075 237.66730634 150.88036214 245.17054262 143.3203125 252.64453125 C140.90727585 255.03097099 138.49761051 257.42074485 136.08984375 259.8125 C135.54205765 260.35198776 134.99427155 260.89147552 134.42988586 261.4473114 C130.46262288 265.38845642 129.38622974 267.08060072 129.3659668 272.62182617 C129.35893234 273.70022263 129.35189789 274.77861908 129.34465027 275.88969421 C129.33840385 277.64585808 129.33840385 277.64585808 129.33203125 279.4375 C129.30882754 281.90560744 129.28470998 284.37370642 129.25976562 286.84179688 C129.22467873 290.74134934 129.19532608 294.64059225 129.18188477 298.5402832 C129.16638922 302.29807296 129.12615908 306.05495152 129.08203125 309.8125 C129.08393967 310.97315475 129.08584808 312.13380951 129.08781433 313.32963562 C128.98845691 319.92190165 128.46403421 324.10623331 124.5078125 329.45703125 C121.3040537 332.46662285 118.32307522 332.73229176 114.0703125 332.95703125 C110.48565031 332.84124135 107.92182096 332.61880194 105.0078125 330.45703125 C98.99126743 323.23717716 99.28675127 316.78769415 100.015625 307.8828125 C102.56136813 280.24256134 102.56136813 280.24256134 92.20703125 255.76171875 C86.90590328 249.97012164 80.8096811 245.04030685 74.50737 240.37998962 C66.85944058 234.69204435 62.64398865 227.85196176 60.97094727 218.43530273 C60.30515038 213.60967309 60.38368819 208.79219324 60.41015625 203.9296875 C60.4115712 202.94077011 60.41298615 201.95185272 60.41444397 200.93296814 C60.42001162 197.79512421 60.4325581 194.65735338 60.4453125 191.51953125 C60.45033168 189.38346458 60.45489386 187.24739678 60.45898438 185.11132812 C60.46997044 179.8932045 60.48667614 174.6751231 60.5078125 169.45703125 C59.73743652 169.32288818 58.96706055 169.18874512 58.17333984 169.05053711 C51.02068227 167.4579276 44.81521345 161.38385737 40.5703125 155.64453125 C33.40229578 144.27219702 31.3926757 132.35539617 34.203125 119.203125 C36.21716221 113.11870168 39.29687803 108.24913585 43.5078125 103.45703125 C44.25998047 102.54824219 44.25998047 102.54824219 45.02734375 101.62109375 C52.10711625 93.73171223 62.54931559 89.26041264 72.984375 88.20703125 C84.93508702 87.65598977 95.500684 91.70486421 104.5078125 99.45703125 C111.48065896 105.89770352 117.14202972 115.25982693 117.7109375 124.8984375 C117.98542999 139.06328572 115.37523074 150.16545654 105.26171875 160.82421875 C95.88578869 169.45703125 95.88578869 169.45703125 90.5078125 169.45703125 C90.47322887 176.00471142 90.49332207 182.55062796 90.55053711 189.09814453 C90.56363615 191.32304096 90.56444855 193.54804636 90.55249023 195.77294922 C90.53741781 198.98122299 90.56725631 202.18650222 90.60546875 205.39453125 C90.58408592 206.87469727 90.58408592 206.87469727 90.56227112 208.38476562 C90.69721681 214.89506741 92.11717744 218.19669915 96.73316956 222.81030273 C97.31880173 223.35372314 97.9044339 223.89714355 98.5078125 224.45703125 C99.22445068 225.21113281 99.94108887 225.96523438 100.67944336 226.7421875 C101.56708374 227.62197266 101.56708374 227.62197266 102.47265625 228.51953125 C103.45395508 229.49599609 103.45395508 229.49599609 104.45507812 230.4921875 C105.11185547 231.14058594 105.76863281 231.78898438 106.4453125 232.45703125 C107.47108398 233.47603516 107.47108398 233.47603516 108.51757812 234.515625 C110.17868545 236.16511619 111.84255583 237.8117326 113.5078125 239.45703125 C118.47050483 235.29456809 123.14749588 230.96515885 127.71875 226.37890625 C128.37235504 225.72625793 129.02596008 225.07360962 129.69937134 224.40118408 C131.06692225 223.03430864 132.43323139 221.66618976 133.79833984 220.296875 C135.89437159 218.19544237 137.99574608 216.09945737 140.09765625 214.00390625 C141.43000864 212.67089382 142.7620512 211.33757162 144.09375 210.00390625 C145.03738907 209.06330353 145.03738907 209.06330353 146.00009155 208.10369873 C150.68516783 203.43547959 150.68516783 203.43547959 151.6751709 197.2461853 C151.68666168 196.36309692 151.69815247 195.48000854 151.70999146 194.57015991 C151.71739349 193.59874054 151.72479553 192.62732117 151.73242188 191.62646484 C151.74381195 190.60514465 151.75520203 189.58382446 151.76693726 188.53155518 C151.87761805 177.84059198 151.92502593 167.14893505 151.96777344 156.45751953 C151.9900474 151.38425874 152.03181335 146.31173368 152.09082031 141.23876953 C152.16190708 135.11556765 152.19860602 128.99305822 152.21089172 122.86946487 C152.22129315 120.53706061 152.24371906 118.2046773 152.27848816 115.872509 C152.32471881 112.60217527 152.32669082 109.33455323 152.31835938 106.06396484 C152.34195526 105.10469086 152.36555115 104.14541687 152.38986206 103.15707397 C152.31173191 96.80372061 150.77440755 93.62970218 146.29743195 89.11489296 C145.70685753 88.5677986 145.11628311 88.02070423 144.5078125 87.45703125 C142.81570472 85.81073043 141.15245431 84.15151069 139.5078125 82.45703125 C139.5078125 81.79703125 139.5078125 81.13703125 139.5078125 80.45703125 C138.5178125 80.12703125 137.5278125 79.79703125 136.5078125 79.45703125 C135.09887695 78.02905273 135.09887695 78.02905273 133.55859375 76.140625 C129.06665473 70.84786172 124.17742357 65.97616477 119.26293945 61.08178711 C117.67735454 59.50163481 116.09727808 57.91611149 114.51757812 56.33007812 C113.50813358 55.32129319 112.49837951 54.31281787 111.48828125 53.3046875 C110.57973389 52.39726807 109.67118652 51.48984863 108.73510742 50.55493164 C104.83305216 46.87956598 101.50004492 47.3204366 96.38623047 47.34350586 C95.54713135 47.34335983 94.70803223 47.34321381 93.84350586 47.34306335 C91.06231119 47.34376157 88.28118301 47.3515497 85.5 47.359375 C83.57471758 47.3612395 81.64943468 47.36266325 79.72415161 47.36366272 C74.6508046 47.36748534 69.57748611 47.37731346 64.50415039 47.3883667 C59.32959377 47.3985863 54.15503255 47.40316152 48.98046875 47.40820312 C38.82290412 47.41893594 28.66536068 47.43600932 18.5078125 47.45703125 C18.23850418 48.14718323 17.96919586 48.83733521 17.69172668 49.54840088 C17.33559799 50.45185242 16.9794693 51.35530396 16.61254883 52.28613281 C16.26074051 53.18253479 15.90893219 54.07893677 15.54646301 55.00250244 C11.10371705 65.50155658 2.15724086 72.06286808 -7.94140625 76.4765625 C-17.59396691 80.1868117 -29.57449595 79.77730067 -39.0390625 75.7109375 C-51.71770109 69.2302958 -59.62743552 60.19993149 -64.1015625 46.60546875 C-66.32078031 34.39977081 -64.24234464 23.3136605 -57.8046875 12.76953125 C-44.7496825 -5.47483824 -19.57991035 -12.12235829 0 0 Z " fill="#F9FEFD" transform="translate(285.4921875,151.54296875)"/>
<path d="M0 0 C5.08746834 4.30667756 8.67447704 9.44872305 11.6875 15.375 C11.6875 16.035 11.6875 16.695 11.6875 17.375 C12.4088916 17.36833817 13.1302832 17.36167633 13.87353516 17.35481262 C20.69928294 17.29449659 27.52499046 17.24892193 34.35093689 17.21956348 C37.85956264 17.20396209 41.36796666 17.18282636 44.87646484 17.14868164 C48.91766388 17.10960247 52.95863298 17.0952452 57 17.08203125 C58.2492627 17.06654739 59.49852539 17.05106354 60.78564453 17.03511047 C68.82853947 17.03356682 75.13099596 17.37172992 81.5 22.75 C86.83559559 29.15271471 87.84118778 33.86756618 87.78173828 42.04589844 C87.77895238 43.63734926 87.77628241 45.22880028 87.77371216 46.82025146 C87.77066196 47.66136223 87.76761177 48.50247299 87.76446915 49.36907196 C87.75309647 53.83723597 87.77363449 58.30529992 87.7890625 62.7734375 C87.80733913 68.45298853 87.81606162 74.13199626 87.78710938 79.81152344 C87.76452122 84.40716167 87.7760631 89.00162167 87.81011581 93.5971756 C87.81686742 95.34336252 87.81125354 97.08964474 87.79275894 98.83574677 C87.32482627 109.62443938 87.32482627 109.62443938 91.76098633 119.02856445 C93.04027485 120.17781195 94.34992398 121.2941488 95.6875 122.375 C96.94101262 123.62939598 98.18381469 124.89457683 99.41625977 126.16967773 C100.7349136 127.46824975 102.05587954 128.76447725 103.37890625 130.05859375 C104.83297215 131.49514938 106.28673919 132.93200756 107.74023438 134.36914062 C109.99696102 136.59494312 112.25593167 138.81831047 114.52026367 141.03637695 C116.73008075 143.20353625 118.93005833 145.38031292 121.12890625 147.55859375 C122.13226768 148.53402382 122.13226768 148.53402382 123.15589905 149.52915955 C129.71516231 156.05288921 135.76075993 162.85604869 135.86450195 172.45385742 C135.88375481 174.00643501 135.88375481 174.00643501 135.90339661 175.59037781 C135.91078354 176.70910782 135.91817047 177.82783783 135.92578125 178.98046875 C135.933853 180.1336409 135.94192474 181.28681305 135.95024109 182.47492981 C135.96408069 184.91857399 135.97480339 187.36223749 135.98266602 189.8059082 C135.99985228 193.53048721 136.0437382 197.25417255 136.08789062 200.97851562 C136.09802004 203.35416015 136.10653537 205.72981221 136.11328125 208.10546875 C136.13078934 209.21407761 136.14829742 210.32268646 136.16633606 211.46488953 C136.14745886 218.24524813 135.30791144 222.59857069 131.6875 228.375 C127.83118564 231.99759834 124.01032151 232.73927595 118.74609375 232.65234375 C114.15859178 232.0342932 111.45063592 229.25893251 108.54052734 225.88818359 C106.00447476 221.08004173 106.19221967 217.13936552 106.2890625 211.7890625 C106.28432648 209.70312387 106.27910303 207.61718631 106.2734375 205.53125 C106.28816457 202.26380351 106.31253457 198.99678374 106.34765625 195.72949219 C106.374416 192.56132863 106.36469925 189.39477597 106.3515625 186.2265625 C106.37320465 185.25860748 106.3948468 184.29065247 106.41714478 183.29336548 C106.3658861 176.20144454 104.54432636 172.47119782 99.6875 167.375 C99.07434937 166.72731659 98.46119873 166.07963318 97.82946777 165.412323 C95.79473542 163.33281232 93.71584339 161.3080329 91.62109375 159.2890625 C90.0679341 157.76605858 88.515213 156.24260731 86.96289062 154.71875 C84.54334352 152.35491211 82.12008148 149.99524265 79.6887207 147.64355469 C77.32140643 145.34928349 74.97046481 143.03918574 72.62109375 140.7265625 C71.53966347 139.69325302 71.53966347 139.69325302 70.43638611 138.6390686 C63.92071301 132.18877434 58.91787005 124.53281688 58.56724548 115.1605835 C58.56946609 113.89039368 58.57168671 112.62020386 58.57397461 111.31152344 C58.57382858 110.60868225 58.57368256 109.90584106 58.5735321 109.18170166 C58.57422701 106.86589437 58.58199962 104.55016819 58.58984375 102.234375 C58.59170943 100.62583459 58.59313263 99.01729362 58.59413147 97.40875244 C58.59794484 93.18044458 58.60776505 88.95217121 58.61883545 84.72387695 C58.63087607 79.64774285 58.63545743 74.57159719 58.64128876 69.49545288 C58.65097743 61.78861129 58.67014224 54.08184533 58.6875 46.375 C43.1775 46.375 27.6675 46.375 11.6875 46.375 C11.3575 48.025 11.0275 49.675 10.6875 51.375 C4.83754304 62.48599208 -3.77687932 69.53502944 -15.33984375 74.19140625 C-26.5879088 77.59198406 -37.96704387 75.4314182 -48.3125 70.375 C-58.38735682 63.99833624 -65.59445994 55.03636284 -68.84301758 43.48925781 C-71.57510896 31.18561177 -69.31755102 19.45421941 -62.7734375 8.890625 C-56.02861011 -0.63524496 -45.79793789 -6.8313302 -34.4296875 -9.234375 C-21.63620777 -10.83756795 -10.30867753 -7.57213568 0 0 Z " fill="#F8FEFD" transform="translate(198.3125,252.625)"/>
<path d="M0 0 C4.35944153 2.22084757 7.16830464 4.42076159 9 9 C9.70599788 13.70665253 9.45316426 17.0588127 7.375 21.375 C3.78174634 25.34649089 0.79988182 26.77501477 -4.5 27.4375 C-9.4738123 26.81577346 -12.26753618 24.67272369 -15.8125 21.25 C-17.55937071 17.94013972 -18.1142614 14.69921291 -18 11 C-15.07575086 2.55216915 -8.70893582 -1.16767855 0 0 Z " fill="#08C4AA" transform="translate(175,272)"/>
<path d="M0 0 C4.06707405 1.4926581 6.46901462 3.22921477 8.9375 6.8125 C10.59114946 11.77344838 10.63236442 15.3558525 8.75 20.25 C6.31808538 24.07158012 4.26537638 25.57820787 0 27 C-4.1320154 27.38981277 -6.46020609 27.27518905 -10.1875 25.375 C-14.37590349 21.83812594 -16.71329047 19.00696671 -17.5 13.5 C-16.71329047 7.99303329 -14.37590349 5.16187406 -10.1875 1.625 C-6.33997539 -0.33648313 -4.27096387 -0.59943353 0 0 Z " fill="#05C8AD" transform="translate(364,269)"/>
<path d="M0 0 C4.13098667 1.74419437 6.76586028 4.11094196 9 8 C9.68305865 12.60685109 9.56358716 16.60586335 7.8125 20.9375 C5.03864696 24.09395345 2.9207189 25.73662383 -1.3359375 26.3203125 C-5.6339973 26.5139188 -8.48063076 26.23607693 -12.4375 24.4375 C-15.58611387 21.44247705 -16.79720458 19.17440763 -18 15 C-17.83491501 10.21253537 -16.95273079 6.79636816 -14 3 C-9.75782294 -0.61832749 -5.32970889 -0.70868625 0 0 Z " fill="#0AC5AA" transform="translate(267,175)"/>
<path d="M0 0 C0.33 0 0.66 0 1 0 C1.02712066 1.43739513 1.04645067 2.87493863 1.0625 4.3125 C1.07410156 5.11300781 1.08570313 5.91351563 1.09765625 6.73828125 C1 9 1 9 0 12 C-1.63420094 23.91654553 -2.18671066 35.79000919 -2.1875 47.8125 C-2.1882251 48.9977124 -2.1889502 50.1829248 -2.18969727 51.40405273 C-2.15185292 57.3745296 -1.81940137 63.09168487 -1 69 C-0.77613401 72.03916078 -0.63741722 75.08084862 -0.5 78.125 C-0.11255137 86.09391819 0.39004209 94.04459154 1 102 C0.67 102 0.34 102 0 102 C-3.91887234 84.99563769 -4.42072026 68.18695226 -4.4375 50.8125 C-4.44322021 49.76088684 -4.44894043 48.70927368 -4.45483398 47.62579346 C-4.58393049 13.75179148 -4.58393049 13.75179148 0 0 Z " fill="#1CA993" transform="translate(42,245)"/>
<path d="M0 0 C0.33 0 0.66 0 1 0 C1.09376255 14.13490394 1.16386802 28.26975911 1.20724869 42.40491104 C1.22807494 48.96926958 1.25630222 55.53341839 1.30175781 62.09765625 C1.34539201 68.43894243 1.36917439 74.78002754 1.37950897 81.12145233 C1.3868688 83.53422966 1.40124047 85.94699666 1.42292023 88.35968781 C1.64346517 113.93328357 1.64346517 113.93328357 -3 122 C-3.99 122.495 -3.99 122.495 -5 123 C-4.5253725 120.6865641 -4.04517721 118.37426981 -3.5625 116.0625 C-3.29566406 114.77472656 -3.02882813 113.48695313 -2.75390625 112.16015625 C-2 109 -2 109 -1 108 C-0.89244851 106.5963421 -0.85320002 105.18737381 -0.84178162 103.77964783 C-0.82709839 102.41449287 -0.82709839 102.41449287 -0.81211853 101.02175903 C-0.80636307 100.01547455 -0.8006076 99.00919006 -0.79467773 97.97241211 C-0.77982834 96.39211464 -0.77982834 96.39211464 -0.76467896 94.77989197 C-0.73295705 91.27906584 -0.70826443 87.77822611 -0.68359375 84.27734375 C-0.66303344 81.85738257 -0.64203723 79.43742506 -0.62062073 77.01747131 C-0.56530465 70.63389039 -0.51593757 64.25027655 -0.46777344 57.86663818 C-0.41762785 51.35832779 -0.36190564 44.85006546 -0.30664062 38.34179688 C-0.1989425 25.56123922 -0.09733438 12.78064057 0 0 Z " fill="#D0FEFD" transform="translate(467,245)"/>
<path d="M0 0 C0.33 0 0.66 0 1 0 C1.09350501 15.15121118 1.16400938 30.30240904 1.20724869 45.45384407 C1.22786052 52.48918436 1.2559544 59.52434521 1.30175781 66.55957031 C1.34593469 73.34821143 1.36913415 80.13666594 1.37950897 86.92544174 C1.38690311 89.51622325 1.40134194 92.10699449 1.42292023 94.69769669 C1.45193169 98.3248937 1.45595677 101.95131902 1.45410156 105.57861328 C1.46848267 106.65107803 1.48286377 107.72354279 1.49768066 108.82850647 C1.46421597 114.87007803 0.99410479 118.36869065 -3 123 C-4 121 -4 121 -3.45660686 119.01532173 C-3.17046929 118.21258764 -2.88433172 117.40985355 -2.58952332 116.58279419 C-0.7930142 110.86882353 -0.5590965 105.63125388 -0.56762695 99.67529297 C-0.5574353 98.59118637 -0.54724365 97.50707977 -0.53674316 96.39012146 C-0.50677872 92.84075644 -0.49737241 89.29166203 -0.48828125 85.7421875 C-0.47142233 83.26782343 -0.45327047 80.79346787 -0.43388367 78.31912231 C-0.38650957 71.83209896 -0.35661867 65.3451101 -0.33044434 58.85797119 C-0.30057529 52.22815995 -0.25406678 45.59847395 -0.20898438 38.96875 C-0.12309446 25.97923134 -0.05511976 12.98968383 0 0 Z " fill="#22AB94" transform="translate(468,244)"/>
<path d="M0 0 C0.66 0.33 1.32 0.66 2 1 C-2.75 4 -2.75 4 -5 4 C-4.67 19.51 -4.34 35.02 -4 51 C-3.34 51 -2.68 51 -2 51 C-0.51953125 52.5390625 -0.51953125 52.5390625 1.1875 54.625 C4.04635201 58.00201894 7.02263733 60.82365044 10.4375 63.62109375 C12 65 12 65 14.1875 67.75 C16.01495554 70.01856549 17.32117503 70.94760448 20 72 C18.515 72.99 18.515 72.99 17 74 C13.88198175 70.90667667 10.76724258 67.81010017 7.65551758 64.71044922 C6.59619526 63.6561597 5.53597771 62.60276891 4.47485352 61.55029297 C2.95093039 60.03848143 1.43024216 58.52348098 -0.08984375 57.0078125 C-1.00628662 56.09660645 -1.92272949 55.18540039 -2.86694336 54.24658203 C-5.81690542 51.1396173 -6.12466254 49.62379061 -6.11352539 45.45849609 C-6.11344986 44.51767181 -6.11337433 43.57684753 -6.11329651 42.60751343 C-6.10555458 41.08089584 -6.10555458 41.08089584 -6.09765625 39.5234375 C-6.0962413 38.48305328 -6.09482635 37.44266907 -6.09336853 36.37075806 C-6.08775866 33.03880979 -6.07520447 29.70692805 -6.0625 26.375 C-6.05748627 24.11979264 -6.05292314 21.86458422 -6.04882812 19.609375 C-6.03778603 14.07289386 -6.02103827 8.53645168 -6 3 C-4.03533587 1.93224776 -2.03144641 0.93446535 0 0 Z " fill="#18A98F" transform="translate(382,318)"/>
<path d="M0 0 C0.33 0 0.66 0 1 0 C1.75611083 4.04433398 2.12980018 7.87379739 2.14526367 11.98608398 C2.15164352 13.14426132 2.15802338 14.30243866 2.16459656 15.49571228 C2.16570938 16.73333817 2.1668222 17.97096405 2.16796875 19.24609375 C2.17129715 20.530569 2.17462555 21.81504425 2.17805481 23.13844299 C2.1840233 25.8508488 2.185897 28.56322286 2.18530273 31.27563477 C2.18520111 34.7365141 2.19886423 38.19718832 2.21607494 41.65801907 C2.2299207 44.9790468 2.22928488 48.30003756 2.23046875 51.62109375 C2.23765427 52.8566954 2.24483978 54.09229706 2.25224304 55.36534119 C2.23267295 62.75242449 2.19797261 68.70304108 -2 75 C-1.8570752 73.81253174 -1.71415039 72.62506348 -1.56689453 71.40161133 C0.14268177 56.14403124 0.23353963 41.02537783 0.125 25.6875 C0.11493828 23.18164425 0.10581814 20.67578453 0.09765625 18.16992188 C0.07592307 12.11319273 0.04270439 6.05661577 0 0 Z " fill="#C5FAF5" transform="translate(569,264)"/>
<path d="M0 0 C7.26622074 0.02414027 13.47184649 1.82754683 20.25 4.3125 C20.25 4.9725 20.25 5.6325 20.25 6.3125 C21.57 6.3125 22.89 6.3125 24.25 6.3125 C24.745 7.7975 24.745 7.7975 25.25 9.3125 C21.99391097 8.25427107 18.88044253 7.14751899 15.75 5.75 C3.70932415 1.26921414 -8.25011222 3.55034032 -19.75 8.3125 C-19.42 7.3225 -19.09 6.3325 -18.75 5.3125 C-16.0625 4.1796875 -16.0625 4.1796875 -12.75 3.1875 C-2.45677837 0.05583587 -2.45677837 0.05583587 0 0 Z " fill="#20B79E" transform="translate(169.75,240.6875)"/>
<path d="M0 0 C1.9101216 6.80024651 -1.57239605 13.1130691 -4.375 19.3125 C-7.26728319 25.97960597 -8.77353069 32.88760526 -10.30029297 39.96606445 C-10.49381348 40.84609131 -10.68733398 41.72611816 -10.88671875 42.6328125 C-11.05389404 43.42574707 -11.22106934 44.21868164 -11.39331055 45.03564453 C-12 47 -12 47 -14 49 C-13.53760794 42.21497675 -12.41496039 36.04361048 -10.375 29.5625 C-10.1157373 28.71719727 -9.85647461 27.87189453 -9.58935547 27.00097656 C-6.73948095 17.87529657 -3.41339697 8.92734591 0 0 Z " fill="#1FAD98" transform="translate(57,195)"/>
<path d="M0 0 C-14.61344 6.2313914 -33.89349627 13.82597455 -50 13 C-47.47903923 10.47903923 -45.92091918 10.47795226 -42.4375 9.9375 C-38.90904834 9.64031837 -38.90904834 9.64031837 -36 8 C-33.85940507 7.57675292 -31.71201743 7.18781257 -29.5625 6.8125 C-22.42583363 5.50440341 -15.71425957 3.37966153 -8.90454102 0.89379883 C-3.30471263 -1.10157088 -3.30471263 -1.10157088 0 0 Z " fill="#22AE99" transform="translate(400,541)"/>
<path d="M0 0 C0.66 0.33 1.32 0.66 2 1 C1.72285156 1.60328125 1.44570312 2.2065625 1.16015625 2.828125 C0.79792969 3.62734375 0.43570313 4.4265625 0.0625 5.25 C-0.29714844 6.03890625 -0.65679687 6.8278125 -1.02734375 7.640625 C-4.99501078 17.26500607 -4.05804901 29.20359724 -0.16796875 38.66796875 C1.00354386 41.10540115 1.00354386 41.10540115 2.69921875 43.67578125 C3.12847656 44.44277344 3.55773437 45.20976562 4 46 C3.67 46.66 3.34 47.32 3 48 C-2.92714212 42.66383393 -4.99808812 35.39495805 -5.42578125 27.66796875 C-5.46972273 25.73732068 -5.49432447 23.80613972 -5.5 21.875 C-5.50604248 20.9574292 -5.51208496 20.0398584 -5.51831055 19.09448242 C-5.40395061 12.80130583 -4.54625076 6.80956629 -2 1 C-1.34 0.67 -0.68 0.34 0 0 Z " fill="#28B39E" transform="translate(225,166)"/>
<path d="M0 0 C-6.95145743 4.05501683 -14.37765256 4.28495922 -22.1875 4.1953125 C-23.60216553 4.19106766 -23.60216553 4.19106766 -25.04541016 4.18673706 C-28.03040756 4.17562442 -31.01509469 4.15053672 -34 4.125 C-36.03515189 4.11495866 -38.07030852 4.10583484 -40.10546875 4.09765625 C-45.07043037 4.07571435 -50.03516275 4.04124673 -55 4 C-55 3.67 -55 3.34 -55 3 C-53.68733154 2.970271 -53.68733154 2.970271 -52.34814453 2.93994141 C-30.2703898 2.48132686 -30.2703898 2.48132686 -8.30078125 0.40234375 C-5.4850053 0.05911899 -2.83049882 -0.08118065 0 0 Z " fill="#C7F9F3" transform="translate(350,555)"/>
<path d="M0 0 C0 3 0 3 -1.4609375 4.68359375 C-2.09257813 5.26238281 -2.72421875 5.84117188 -3.375 6.4375 C-5.97776942 8.8314052 -7.48192817 10.82293827 -9 14 C-11.18183081 16.29371956 -13.43095069 18.47159707 -15.75 20.625 C-17.25659086 22.09616618 -17.25659086 22.09616618 -18 25 C-19.62102968 26.71108689 -21.29503463 28.37253306 -23 30 C-23.928125 30.928125 -24.85625 31.85625 -25.8125 32.8125 C-26.534375 33.534375 -27.25625 34.25625 -28 35 C-24.13624214 26.69865887 -17.78842877 19.60276784 -11.875 12.6875 C-11.38467285 12.11338379 -10.8943457 11.53926758 -10.38916016 10.94775391 C-7.08155211 7.12668646 -3.60819931 3.53860496 0 0 Z " fill="#22AC97" transform="translate(113,111)"/>
<path d="M0 0 C6.45423493 2.87326687 10.70809191 8.56358309 15 14 C16.64429829 15.68873879 18.31384218 17.35305515 20 19 C21.27215781 20.26950748 22.5429471 21.54038752 23.8125 22.8125 C24.41707031 23.41707031 25.02164062 24.02164063 25.64453125 24.64453125 C26.09183594 25.09183594 26.53914063 25.53914063 27 26 C26.67 26.66 26.34 27.32 26 28 C22.2908542 24.34017795 18.58823822 20.67392152 14.89160156 17.00146484 C13.63232287 15.75226298 12.37125764 14.50485944 11.10839844 13.25927734 C9.29673588 11.47178925 7.49153161 9.67799773 5.6875 7.8828125 C5.11878174 7.32441681 4.55006348 6.76602112 3.96411133 6.19070435 C2.6042535 4.83124115 1.29658827 3.41993393 0 2 C0 1.34 0 0.68 0 0 Z " fill="#2BB9A2" transform="translate(420,186)"/>
<path d="M0 0 C0.33 0 0.66 0 1 0 C1.78098802 5.714229 2.24000857 11.36550869 2.5 17.125 C2.88744863 25.09391819 3.39004209 33.04459154 4 41 C3.67 41 3.34 41 3 41 C-1.98192565 13.05485809 -1.98192565 13.05485809 0 0 Z " fill="#1DB39D" transform="translate(39,306)"/>
<path d="M0 0 C6.74080425 5.52650334 12.8071129 11.69449559 18.9375 17.875 C20.01343727 18.95596274 21.08960731 20.03669383 22.16601562 21.1171875 C24.78003292 23.74212641 27.39088596 26.37018628 30 29 C29.34 29.66 28.68 30.32 28 31 C27.319375 30.2471875 26.63875 29.494375 25.9375 28.71875 C19.19955411 21.3209387 12.26129043 14.1793208 5.08203125 7.20703125 C4.42074219 6.55734375 3.75945312 5.90765625 3.078125 5.23828125 C2.48418945 4.66118408 1.89025391 4.08408691 1.27832031 3.48950195 C0 2 0 2 0 0 Z " fill="#30B7A0" transform="translate(392,200)"/>
<path d="M0 0 C1.32 0.33 2.64 0.66 4 1 C4 19.48 4 37.96 4 57 C3.67 57 3.34 57 3 57 C2.99191315 56.33014572 2.98382629 55.66029144 2.97549438 54.97013855 C2.88957306 48.0110647 2.790075 41.0522798 2.68261719 34.09350586 C2.64428568 31.49492233 2.60944026 28.89628498 2.578125 26.29760742 C2.53256534 22.56669857 2.47455538 18.8361616 2.4140625 15.10546875 C2.39673569 13.35691841 2.39673569 13.35691841 2.37905884 11.57304382 C2.35918915 10.49214981 2.33931946 9.4112558 2.31884766 8.29760742 C2.30552399 7.34496506 2.29220032 6.39232269 2.2784729 5.41081238 C2.15540728 2.73958652 2.15540728 2.73958652 0 0 Z " fill="#BEFEFA" transform="translate(382,414)"/>
<path d="M0 0 C2.57560647 3.8634097 4.03434486 6.56614252 4.5625 11.1875 C4.57461534 14.78190939 4.57461534 14.78190939 6 16 C6.32545535 17.32549087 6.61001123 18.66110935 6.875 20 C7.74148774 24.14723521 8.99305539 28.00562754 10.51171875 31.95703125 C11.08105379 34.33912906 10.65821835 35.67700114 10 38 C0 9.06688551 0 9.06688551 0 0 Z " fill="#20AE99" transform="translate(43,347)"/>
<path d="M0 0 C4.48747446 0.44139093 7.35735498 1.49124847 10.8125 4.375 C13.79969005 8.71124363 14.37044988 12.1674678 13.8125 17.375 C11.51017442 23.02616279 11.51017442 23.02616279 8.8125 24.375 C8.8125 23.055 8.8125 21.735 8.8125 20.375 C9.4725 20.045 10.1325 19.715 10.8125 19.375 C11.45186472 12.01394081 11.45186472 12.01394081 9 5.25 C4.42578265 2.55928391 0.04263973 2.47575576 -5.1875 2.375 C-3.1875 0.375 -3.1875 0.375 0 0 Z " fill="#26B69E" transform="translate(360.1875,268.625)"/>
<path d="M0 0 C0.33 0 0.66 0 1 0 C1.125 5.75 1.125 5.75 0 8 C-0.09501634 9.36590466 -0.13072825 10.73626486 -0.1328125 12.10546875 C-0.13410156 12.92466797 -0.13539063 13.74386719 -0.13671875 14.58789062 C-0.13285156 15.44576172 -0.12898437 16.30363281 -0.125 17.1875 C-0.12886719 18.02603516 -0.13273438 18.86457031 -0.13671875 19.72851562 C-0.12912551 24.59198705 0.18245958 29.20506058 1 34 C-2.92889042 30.07110958 -3.25412883 24.51511296 -3.328125 19.15039062 C-3.32296875 18.48201172 -3.3178125 17.81363281 -3.3125 17.125 C-3.31121094 16.42826172 -3.30992187 15.73152344 -3.30859375 15.01367188 C-3.20488556 9.43935688 -2.18230853 5.09205324 0 0 Z " fill="#D8FEFC" transform="translate(224,171)"/>
<path d="M0 0 C5.72540276 0.57719507 10.40202053 2.74342799 15.5625 5.125 C16.88072754 5.72526001 16.88072754 5.72526001 18.22558594 6.33764648 C25.3183472 9.60309356 32.20940358 13.14621261 39 17 C38.01 17.495 38.01 17.495 37 18 C35.24414062 17.37915039 35.24414062 17.37915039 33.15625 16.34765625 C32.40472656 15.98349609 31.65320313 15.61933594 30.87890625 15.24414062 C30.09386719 14.85419922 29.30882812 14.46425781 28.5 14.0625 C26.94957 13.30001431 25.3975563 12.54073787 23.84375 11.78515625 C23.15474609 11.44363525 22.46574219 11.10211426 21.75585938 10.75024414 C20.01171291 9.86902799 20.01171291 9.86902799 18 10 C17.67 9.34 17.34 8.68 17 8 C15.27658892 7.06986518 15.27658892 7.06986518 13.18359375 6.2734375 C12.41982422 5.9640625 11.65605469 5.6546875 10.86914062 5.3359375 C10.06669922 5.01882812 9.26425781 4.70171875 8.4375 4.375 C7.63119141 4.05015625 6.82488281 3.7253125 5.99414062 3.390625 C3.9985338 2.58765894 1.99957093 1.79304298 0 1 C0 0.67 0 0.34 0 0 Z " fill="#23B099" transform="translate(397,49)"/>
<path d="M0 0 C4.81241104 4.12492375 6.78524301 10.66836164 9.375 16.3125 C11.75738465 21.49151407 14.27899773 26.48898064 17.25 31.36328125 C17.4975 31.90339844 17.745 32.44351563 18 33 C17.67 33.66 17.34 34.32 17 35 C12.41391296 27.22739472 8.07002642 19.36774363 4 11.3125 C3.60240479 10.53471191 3.20480957 9.75692383 2.79516602 8.95556641 C2.42963623 8.2238623 2.06410645 7.4921582 1.6875 6.73828125 C1.36136719 6.08899658 1.03523438 5.43971191 0.69921875 4.77075195 C0 3 0 3 0 0 Z " fill="#1EAC96" transform="translate(58,395)"/>
<path d="M0 0 C0.33 0 0.66 0 1 0 C0.44663667 6.6875983 -0.86962744 12.66976357 -2.875 19.0625 C-3.13152344 19.90876953 -3.38804687 20.75503906 -3.65234375 21.62695312 C-5.24928836 26.83106658 -7.03926403 31.92204606 -9 37 C-10.16882109 33.49353673 -9.78114547 32.6472355 -8.6015625 29.24609375 C-8.28703125 28.30830078 -7.9725 27.37050781 -7.6484375 26.40429688 C-6.97540596 24.45327606 -6.3009668 22.50274016 -5.625 20.55273438 C-3.54388216 14.33899026 -2.33497655 8.54995595 -2 2 C-1.34 2 -0.68 2 0 2 C0 1.34 0 0.68 0 0 Z " fill="#24B09A" transform="translate(563,350)"/>
<path d="M0 0 C0.33 0.99 0.66 1.98 1 3 C1.66 3 2.32 3 3 3 C4.48046875 4.5390625 4.48046875 4.5390625 6.1875 6.625 C9.04635201 10.00201894 12.02263733 12.82365044 15.4375 15.62109375 C17 17 17 17 19.1875 19.75 C21.01495554 22.01856549 22.32117503 22.94760448 25 24 C24.01 24.66 23.02 25.32 22 26 C18.87876833 22.92820906 15.76416015 19.84989924 12.65551758 16.76538086 C11.59709345 15.71701379 10.53688117 14.67044884 9.47485352 13.62573242 C7.94854529 12.12368529 6.42878686 10.61527295 4.91015625 9.10546875 C3.99371338 8.19949951 3.07727051 7.29353027 2.13305664 6.36010742 C0 4 0 4 -1 1 C-0.67 0.67 -0.34 0.34 0 0 Z " fill="#2CB49E" transform="translate(377,366)"/>
<path d="M0 0 C5.77078076 -0.14997509 11.02720186 0.34995389 16.6875 1.4375 C17.42033203 1.57220703 18.15316406 1.70691406 18.90820312 1.84570312 C22.61212637 2.53037785 26.30875859 3.25010283 30 4 C30 4.66 30 5.32 30 6 C30.99 6.33 31.98 6.66 33 7 C25.90684314 6.24374431 18.98535736 4.86577754 12 3.4375 C10.84371094 3.20353516 9.68742187 2.96957031 8.49609375 2.72851562 C5.66351686 2.15497733 2.83151798 1.57873932 0 1 C0 0.67 0 0.34 0 0 Z " fill="#CAF9F5" transform="translate(346,35)"/>
<path d="M0 0 C0 4.09206929 -1.7071667 5.39943715 -4.34375 8.359375 C-6.35961335 10.35622077 -8.5113683 11.65479368 -11 13 C-12.75149165 14.58245275 -12.75149165 14.58245275 -14 16 C-14.66 15.67 -15.32 15.34 -16 15 C-10.85228904 9.74723372 -5.66129431 4.69766975 0 0 Z " fill="#1FAF99" transform="translate(130,95)"/>
<path d="M0 0 C0.99 0.33 1.98 0.66 3 1 C3 1.66 3 2.32 3 3 C3.66 3 4.32 3 5 3 C6.515625 4.50390625 6.515625 4.50390625 8.25 6.5625 C8.86488281 7.28566406 9.47976562 8.00882812 10.11328125 8.75390625 C10.73589844 9.49511719 11.35851562 10.23632812 12 11 C13.14473463 12.33427675 14.29046728 13.66769833 15.4375 15 C16.283125 15.99 17.12875 16.98 18 18 C14.98984706 16.6489735 12.88032534 15.13664313 10.546875 12.8125 C9.928125 12.19632812 9.309375 11.58015625 8.671875 10.9453125 C7.72054687 9.98238281 7.72054687 9.98238281 6.75 9 C6.1003125 8.35804688 5.450625 7.71609375 4.78125 7.0546875 C4.16765625 6.43851562 3.5540625 5.82234375 2.921875 5.1875 C2.08027832 4.34251953 2.08027832 4.34251953 1.22167969 3.48046875 C0 2 0 2 0 0 Z " fill="#27AE9A" transform="translate(106,470)"/>
<path d="M0 0 C0.33 0 0.66 0 1 0 C1.71969331 6.62117849 -0.47155738 11.41864532 -4 17 C-4.66 17.33 -5.32 17.66 -6 18 C-4.23536928 11.89262558 -2.30442525 5.92566493 0 0 Z " fill="#D4FCF9" transform="translate(556,379)"/>
<path d="M0 0 C0 0.99 0 1.98 0 3 C-3.35504087 6.00796768 -6.04071869 6.94951151 -10.5625 7.1875 C-14 7 -14 7 -16 5 C-12.7 5 -9.4 5 -6 5 C-6 4.34 -6 3.68 -6 3 C-5.195625 2.690625 -4.39125 2.38125 -3.5625 2.0625 C-1.10919595 1.23664655 -1.10919595 1.23664655 0 0 Z " fill="#24B49C" transform="translate(181,292)"/>
<path d="M0 0 C0.66 0.33 1.32 0.66 2 1 C0.92807816 2.3218362 -0.15802695 3.63217927 -1.25 4.9375 C-1.85328125 5.66839844 -2.4565625 6.39929688 -3.078125 7.15234375 C-5.10741134 9.10326334 -6.254407 9.61731779 -9 10 C-6.68116787 5.49115974 -3.93548431 3.06093224 0 0 Z " fill="#DAFBF8" transform="translate(146,251)"/>
<path d="M0 0 C0.33 0.66 0.66 1.32 1 2 C0.66226562 2.47050781 0.32453125 2.94101562 -0.0234375 3.42578125 C-0.46945312 4.04839844 -0.91546875 4.67101562 -1.375 5.3125 C-1.81585938 5.92738281 -2.25671875 6.54226563 -2.7109375 7.17578125 C-3.83410907 8.7652392 -4.92041447 10.38062171 -6 12 C-9.125 13.1875 -9.125 13.1875 -12 14 C-8 9.33333333 -4 4.66666667 0 0 Z " fill="#2EBCA4" transform="translate(463,367)"/>
<path d="M0 0 C1.125 3.75 1.125 3.75 0 6 C-0.1421988 9.83936768 -0.17754676 13.32016639 1 17 C-1.93479802 14.19280189 -2.93422265 12.87154994 -3.25 8.6875 C-2.9886592 4.83272318 -2.23869739 3.07820891 0 0 Z " fill="#23B59E" transform="translate(350,274)"/>
<path d="M0 0 C7.05889737 0.70588974 14.01204964 1.78213386 21 3 C21 3.33 21 3.66 21 4 C18.24849263 3.91288896 15.50018367 3.80600385 12.75 3.6875 C11.97269531 3.66494141 11.19539062 3.64238281 10.39453125 3.61914062 C6.06020907 3.41539044 3.21958895 3.22824376 0 0 Z " fill="#CAF9F5" transform="translate(243,552)"/>
<path d="M0 0 C0.33 0.99 0.66 1.98 1 3 C-2.63 6.3 -6.26 9.6 -10 13 C-10.66 12.67 -11.32 12.34 -12 12 C-8.04 8.04 -4.08 4.08 0 0 Z " fill="#19B198" transform="translate(439,393)"/>
<path d="M0 0 C1.32 0 2.64 0 4 0 C4 0.66 4 1.32 4 2 C4.70125 2.0825 5.4025 2.165 6.125 2.25 C9.65272947 3.17027725 12.06111614 4.88126977 15 7 C14.01 7.495 14.01 7.495 13 8 C10.71741367 6.92325298 8.5643566 5.80453884 6.375 4.5625 C5.76398438 4.22412109 5.15296875 3.88574219 4.5234375 3.53710938 C3.011647 2.69853808 1.50529601 1.85017423 0 1 C0 0.67 0 0.34 0 0 Z " fill="#23AE9A" transform="translate(172,523)"/>
<path d="M0 0 C0.33 0.99 0.66 1.98 1 3 C0.01 3.33 -0.98 3.66 -2 4 C-2.6837045 5.32467746 -3.34964186 6.65863633 -4 8 C-4.99 8.66 -5.98 9.32 -7 10 C-7 7 -7 7 -5.46875 5.17578125 C-4.8190625 4.56089844 -4.169375 3.94601562 -3.5 3.3125 C-2.8503125 2.68988281 -2.200625 2.06726563 -1.53125 1.42578125 C-0.77328125 0.72001953 -0.77328125 0.72001953 0 0 Z " fill="#D6FEF9" transform="translate(410,381)"/>
<path d="M0 0 C-1.90401138 1.90401138 -3.33425686 2.93520439 -6.046875 3.19921875 C-8.03233273 3.1886578 -10.0169914 3.09915043 -12 3 C-12 2.34 -12 1.68 -12 1 C-10.37681021 0.63762737 -8.7513642 0.28534843 -7.125 -0.0625 C-6.22007812 -0.25972656 -5.31515625 -0.45695312 -4.3828125 -0.66015625 C-2 -1 -2 -1 0 0 Z " fill="#DAFDFB" transform="translate(179,298)"/>
<path d="M0 0 C1.98 0 3.96 0 6 0 C3.15314251 2.31966166 0.5236125 3.91581154 -3 5 C-3.99 4.67 -4.98 4.34 -6 4 C-3 2 -3 2 0 2 C0 1.34 0 0.68 0 0 Z " fill="#1FB29B" transform="translate(406,535)"/>
<path d="M0 0 C0.66 0.33 1.32 0.66 2 1 C2.56638908 5.81430721 0.82561627 8.20307814 -2 12 C-3.40907283 9.18185434 -2.50872691 7.82722796 -1.5625 4.875 C-1.27503906 3.96492188 -0.98757813 3.05484375 -0.69140625 2.1171875 C-0.46324219 1.41851562 -0.23507812 0.71984375 0 0 Z " fill="#26B8A2" transform="translate(467,355)"/>
<path d="M0 0 C0 3.97054597 -1.3139381 5.16471244 -4 8 C-6.140625 8.6484375 -6.140625 8.6484375 -8 9 C-7.04270084 7.87411986 -6.08412105 6.7493285 -5.125 5.625 C-4.59132813 4.99851562 -4.05765625 4.37203125 -3.5078125 3.7265625 C-2.38567993 2.44163349 -1.20628025 1.20628025 0 0 Z " fill="#DFFEFE" transform="translate(500,473)"/>
<path d="M0 0 C0.75 1.5625 0.75 1.5625 1 4 C-0.13084437 6.50286409 -1.52139516 8.67007722 -3 11 C-3.66 11 -4.32 11 -5 11 C-3.77472971 6.94718288 -2.30119506 3.55639236 0 0 Z " fill="#D2FBF8" transform="translate(540,416)"/>
<path d="M0 0 C0.33 0.66 0.66 1.32 1 2 C0.00390625 3.9453125 0.00390625 3.9453125 -1.4375 6.125 C-1.91058594 6.84945313 -2.38367188 7.57390625 -2.87109375 8.3203125 C-3.24363281 8.87460937 -3.61617187 9.42890625 -4 10 C-5.24546405 7.50907189 -4.7767578 6.58919267 -4 4 C-3.34 4 -2.68 4 -2 4 C-2 3.01 -2 2.02 -2 1 C-1.34 0.67 -0.68 0.34 0 0 Z " fill="#20B79F" transform="translate(535,423)"/>
<path d="M0 0 C0 3.90838866 -1.50567876 5.11594107 -4 8 C-4.99 7.67 -5.98 7.34 -7 7 C-4.69 4.69 -2.38 2.38 0 0 Z " fill="#DAFEFC" transform="translate(418,373)"/>
<path d="M0 0 C0.33 0 0.66 0 1 0 C1.25 3.25 1.25 3.25 1 7 C-0.32 8.32 -1.64 9.64 -3 11 C-2.01 7.37 -1.02 3.74 0 0 Z " fill="#D1FBF8" transform="translate(560,367)"/>
<path d="M0 0 C0.33 0 0.66 0 1 0 C0.67 2.97 0.34 5.94 0 9 C-0.66 9 -1.32 9 -2 9 C-2 6.69 -2 4.38 -2 2 C-1.34 2 -0.68 2 0 2 C0 1.34 0 0.68 0 0 Z " fill="#19B9A1" transform="translate(563,350)"/>
<path d="M0 0 C-3.1254959 2.64465038 -6.08788267 3.84414715 -10 5 C-10 4.34 -10 3.68 -10 3 C-9.01 3 -8.02 3 -7 3 C-7 2.34 -7 1.68 -7 1 C-4.53721199 -0.231394 -2.7204945 -0.07159196 0 0 Z " fill="#D5FCF9" transform="translate(180,62)"/>
</svg>
